<svg xmlns="http://www.w3.org/2000/svg" aria-hidden="true" style="position:absolute;width:0;height:0;overflow:hidden">
  <defs>
     <symbol id="icon-arrowlogo-header" viewBox="0 0 44 40">
      <g fill="#ECD979" clip-path="url(#a)">
       <path d="M43.94 38.956h-1.37v-1.39h1.372v1.39Zm-1.371 0h-1.373v-1.39h1.373v1.39Zm-5.489 0h-1.373v-1.39h1.372v1.39Zm-1.373 0h-1.372v-1.39h1.372v1.39Zm-1.372 0h-1.373v-1.39h1.373v1.39Zm-8.235 0h-1.372v-1.39h1.373v1.39Zm-8.233 0h-1.372v-1.39h1.372v1.39Zm-8.234 0H8.261v-1.39h1.372v1.39Zm-1.372 0H6.889v-1.39H8.26v1.39Z"/>
      <path d="M6.889 38.956H5.516v-1.39H6.89v1.39Zm-5.489 0H.026v-1.39H1.4v1.39Zm42.54-1.391h-1.37v-1.391h1.372v1.391Zm-5.488 0h-1.373v-1.391h1.373v1.391Z"/>
      <path d="M37.08 37.565h-1.373v-1.391h1.372v1.391Zm-1.373 0h-1.372v-1.391h1.372v1.391Zm-9.607 0h-1.372v-1.391h1.373v1.391Z"/>
      <path d="M24.729 37.565h-1.373v-1.391h1.372v1.391Zm-5.489 0h-1.373v-1.391h1.372v1.391Z"/>
      <path d="M17.867 37.565h-1.372v-1.391h1.372v1.391Zm-9.606 0H6.889v-1.391H8.26v1.391Z"/>
      <path d="M6.889 37.565H5.516v-1.391H6.89v1.391Zm-1.373 0H4.144v-1.391h1.372v1.391Zm34.308-1.391h-1.372v-1.391h1.372v1.39Zm-1.372 0h-1.373v-1.391h1.373v1.39Z"/>
      <path d="M37.08 36.174h-1.373v-1.391h1.372v1.39Zm-10.98 0h-1.372v-1.391h1.373v1.39Z"/>
      <path d="M24.729 36.174h-1.373v-1.391h1.372v1.39Z"/>
      <path d="M23.356 36.174h-1.372v-1.391h1.372v1.39Zm-2.744 0H19.24v-1.391h1.372v1.39Zm-1.372 0h-1.373v-1.391h1.372v1.39Zm-1.373 0h-1.372v-1.391h1.372v1.39Zm-10.978 0H5.516v-1.391H6.89v1.39Zm-1.373 0H4.144v-1.391h1.372v1.39Zm-1.372 0H2.772v-1.391h1.372v1.39Zm37.052-1.391h-1.372V33.39h1.372v1.392Zm-1.372 0h-1.372V33.39h1.372v1.392Zm-1.372 0h-1.373V33.39h1.373v1.392Zm-6.862 0h-1.372V33.39h1.372v1.392Zm-1.372 0h-1.372V33.39h1.372v1.392Zm-1.372 0h-1.373V33.39h1.373v1.392Zm-4.117 0h-1.373V33.39h1.372v1.392Z"/>
      <path d="M23.356 34.783h-1.372V33.39h1.372v1.392Zm-2.744 0H19.24V33.39h1.372v1.392Zm-1.372 0h-1.373V33.39h1.372v1.392Zm-4.117 0H13.75V33.39h1.373v1.392Zm-1.373 0h-1.372V33.39h1.372v1.392Zm-1.372 0h-1.372V33.39h1.372v1.392Zm-6.862 0H4.144V33.39h1.372v1.392Zm-1.372 0H2.772V33.39h1.372v1.392Z"/>
      <path d="M2.772 34.783H1.399V33.39h1.373v1.392Zm39.797-1.392h-1.373V32h1.373v1.391Zm-1.373 0h-1.372V32h1.372v1.391Zm-1.372 0h-1.372V32h1.372v1.391Zm-9.606 0h-1.372V32h1.372v1.391Zm-1.372 0h-1.373V32h1.373v1.391Zm-1.373 0h-1.372V32h1.372v1.391Zm-4.117 0h-1.372V32h1.372v1.391Zm-2.744 0H19.24V32h1.372v1.391Zm-4.117 0h-1.372V32h1.372v1.391Zm-1.372 0H13.75V32h1.373v1.391Zm-1.373 0h-1.372V32h1.372v1.391Z"/>
      <path d="M4.144 33.391H2.772V32h1.372v1.391Z"/>
      <path d="M2.772 33.391H1.399V32h1.373v1.391Z"/>
      <path d="M1.4 33.391H.026V32H1.4v1.391ZM42.569 32h-1.373v-1.391h1.373V32Zm-1.373 0h-1.372v-1.391h1.372V32Zm-12.35 0h-1.373v-1.391h1.373V32Zm-1.373 0h-1.372v-1.391h1.372V32ZM26.1 32h-1.372v-1.391h1.373V32Zm-8.233 0h-1.372v-1.391h1.372V32Zm-1.372 0h-1.372v-1.391h1.372V32Zm-1.372 0H13.75v-1.391h1.373V32ZM2.772 32H1.399v-1.391h1.373V32Z"/>
      <path d="M1.4 32H.026v-1.391H1.4V32Zm41.169-1.391h-1.373v-1.392h1.373v1.392Zm-6.862 0h-1.372v-1.392h1.372v1.392Zm-12.351 0h-1.372v-1.392h1.372v1.392Zm-2.744 0H19.24v-1.392h1.372v1.392Zm-12.351 0H6.889v-1.392H8.26v1.392Zm-6.861 0H.026v-1.392H1.4v1.392Zm34.307-1.392h-1.372v-1.39h1.372v1.39Zm-1.372 0h-1.373v-1.39h1.373v1.39Zm-9.606 0h-1.373v-1.39h1.372v1.39Z"/>
      <path d="M23.356 29.217h-1.372v-1.39h1.372v1.39Zm-2.744 0H19.24v-1.39h1.372v1.39Zm-1.372 0h-1.373v-1.39h1.372v1.39Zm-9.607 0H8.261v-1.39h1.372v1.39Zm-1.372 0H6.889v-1.39H8.26v1.39Zm27.446-1.391h-1.372v-1.391h1.372v1.391Zm-1.372 0h-1.373v-1.391h1.373v1.391Zm-1.373 0H31.59v-1.391h1.372v1.391Zm-6.862 0h-1.372v-1.391h1.373v1.391Z"/>
      <path d="M24.729 27.826h-1.373v-1.391h1.372v1.391Zm-5.489 0h-1.373v-1.391h1.372v1.391Z"/>
      <path d="M17.867 27.826h-1.372v-1.391h1.372v1.391Zm-6.861 0H9.633v-1.391h1.373v1.391Zm-1.373 0H8.261v-1.391h1.372v1.391Zm-1.372 0H6.889v-1.391H8.26v1.391Zm26.074-1.391h-1.373v-1.391h1.373v1.39Zm-1.373 0H31.59v-1.391h1.372v1.39Zm-5.489 0h-1.372v-1.391h1.372v1.39Zm-1.373 0h-1.372v-1.391h1.373v1.39Zm-8.233 0h-1.372v-1.391h1.372v1.39Zm-1.372 0h-1.372v-1.391h1.372v1.39Zm-5.489 0H9.633v-1.391h1.373v1.39Zm-1.373 0H8.261v-1.391h1.372v1.39Zm30.191-1.391h-1.372v-1.392h1.372v1.392Zm-1.372 0h-1.373v-1.392h1.373v1.392Z"/>
      <path d="M37.08 25.044h-1.373v-1.392h1.372v1.392Zm-4.118 0H31.59v-1.392h1.372v1.392Zm-4.116 0h-1.373v-1.392h1.373v1.392Zm-1.373 0h-1.372v-1.392h1.372v1.392Zm-10.978 0h-1.372v-1.392h1.372v1.392Zm-1.372 0H13.75v-1.392h1.373v1.392Zm-4.117 0H9.633v-1.392h1.373v1.392Zm-4.117 0H5.516v-1.392H6.89v1.392Zm-1.373 0H4.144v-1.392h1.372v1.392Zm-1.372 0H2.772v-1.392h1.372v1.392Zm39.796-1.392h-1.37v-1.391h1.372v1.391Zm-5.488 0h-1.373v-1.391h1.373v1.391Z"/>
      <path d="M37.08 23.652h-1.373v-1.391h1.372v1.391Zm-1.373 0h-1.372v-1.391h1.372v1.391Zm-5.489 0h-1.372v-1.391h1.372v1.391Zm-1.372 0h-1.373v-1.391h1.373v1.391Zm-13.723 0H13.75v-1.391h1.373v1.391Zm-1.373 0h-1.372v-1.391h1.372v1.391Zm-5.489 0H6.889v-1.391H8.26v1.391Z"/>
      <path d="M6.889 23.652H5.516v-1.391H6.89v1.391Zm-1.373 0H4.144v-1.391h1.372v1.391ZM43.94 22.26h-1.37v-1.39h1.372v1.39Zm-1.371 0h-1.373v-1.39h1.373v1.39Zm-5.489 0h-1.373v-1.39h1.372v1.39Zm-1.373 0h-1.372v-1.39h1.372v1.39Zm-1.372 0h-1.373v-1.39h1.373v1.39Zm-2.745 0h-1.372v-1.39h1.372v1.39Zm-1.372 0h-1.372v-1.39h1.372v1.39Zm-8.234 0h-1.372v-1.39h1.372v1.39Zm-8.234 0h-1.372v-1.39h1.372v1.39Zm-1.372 0h-1.372v-1.39h1.372v1.39Zm-2.745 0H8.261v-1.39h1.372v1.39Zm-1.372 0H6.889v-1.39H8.26v1.39Z"/>
      <path d="M6.889 22.26H5.516v-1.39H6.89v1.39Zm-5.517-1.39H0v-1.392h1.372v1.392Zm1.4 0H1.399v-1.392h1.373v1.392Zm-1.4 1.39H0v-1.39h1.372v1.39Zm0-2.782H0v-1.391h1.372v1.391ZM43.94 20.87h-1.37v-1.392h1.372v1.392Zm-1.371 0h-1.373v-1.392h1.373v1.392Zm-1.373 0h-1.372v-1.392h1.372v1.392Zm-17.84 0h-1.372v-1.392h1.372v1.392Zm-1.372 0h-1.372v-1.392h1.372v1.392Zm-1.372 0H19.24v-1.392h1.372v1.392Zm23.328-1.392h-1.37v-1.391h1.372v1.391Zm-1.371 0h-1.373v-1.391h1.373v1.391Zm-5.489 0h-1.373v-1.391h1.372v1.391Zm-1.373 0h-1.372v-1.391h1.372v1.391Zm-1.372 0h-1.373v-1.391h1.373v1.391Zm-2.745 0h-1.372v-1.391h1.372v1.391Zm-1.372 0h-1.372v-1.391h1.372v1.391Zm-8.234 0h-1.372v-1.391h1.372v1.391Zm-8.234 0h-1.372v-1.391h1.372v1.391Zm-1.372 0h-1.372v-1.391h1.372v1.391Zm-2.745 0H8.261v-1.391h1.372v1.391Zm-1.372 0H6.889v-1.391H8.26v1.391Z"/>
      <path d="M6.889 19.478H5.516v-1.391H6.89v1.391Zm37.051-1.391h-1.37v-1.391h1.372v1.39Zm-5.488 0h-1.373v-1.391h1.373v1.39Z"/>
      <path d="M37.08 18.087h-1.373v-1.391h1.372v1.39Zm-1.373 0h-1.372v-1.391h1.372v1.39Zm-5.489 0h-1.372v-1.391h1.372v1.39Zm-1.372 0h-1.373v-1.391h1.373v1.39Zm-13.723 0H13.75v-1.391h1.373v1.39Zm-1.373 0h-1.372v-1.391h1.372v1.39Zm-5.489 0H6.889v-1.391H8.26v1.39Z"/>
      <path d="M6.889 18.087H5.516v-1.391H6.89v1.39Zm-1.373 0H4.144v-1.391h1.372v1.39Zm34.308-1.391h-1.372v-1.392h1.372v1.392Zm-1.372 0h-1.373v-1.392h1.373v1.392Z"/>
      <path d="M37.08 16.696h-1.373v-1.392h1.372v1.392Zm-4.118 0H31.59v-1.392h1.372v1.392Zm-4.116 0h-1.373v-1.392h1.373v1.392Zm-1.373 0h-1.372v-1.392h1.372v1.392Zm-10.978 0h-1.372v-1.392h1.372v1.392Zm-1.372 0H13.75v-1.392h1.373v1.392Zm-4.117 0H9.633v-1.392h1.373v1.392Zm-4.117 0H5.516v-1.392H6.89v1.392Zm-1.373 0H4.144v-1.392h1.372v1.392Zm-1.372 0H2.772v-1.392h1.372v1.392Zm30.191-1.392h-1.373v-1.391h1.373v1.391Zm-1.373 0H31.59v-1.391h1.372v1.391Zm-5.489 0h-1.372v-1.391h1.372v1.391Z"/>
      <path d="M26.1 15.304h-1.372v-1.391h1.373v1.391Zm-8.233 0h-1.372v-1.391h1.372v1.391Zm-1.372 0h-1.372v-1.391h1.372v1.391Zm-5.489 0H9.633v-1.391h1.373v1.391Zm-1.373 0H8.261v-1.391h1.372v1.391Zm26.074-1.391h-1.372v-1.391h1.372v1.391Zm-1.372 0h-1.373v-1.391h1.373v1.391Zm-1.373 0H31.59v-1.391h1.372v1.391Zm-6.862 0h-1.372v-1.391h1.373v1.391Z"/>
      <path d="M24.729 13.913h-1.373v-1.391h1.372v1.391Zm-5.489 0h-1.373v-1.391h1.372v1.391Z"/>
      <path d="M17.867 13.913h-1.372v-1.391h1.372v1.391Zm-6.861 0H9.633v-1.391h1.373v1.391Zm-1.373 0H8.261v-1.391h1.372v1.391Zm-1.372 0H6.889v-1.391H8.26v1.391Zm27.446-1.391h-1.372V11.13h1.372v1.392Zm-1.372 0h-1.373V11.13h1.373v1.392Zm-9.606 0h-1.373V11.13h1.372v1.392Z"/>
      <path d="M23.356 12.522h-1.372V11.13h1.372v1.392Zm-2.744 0H19.24V11.13h1.372v1.392Zm-1.372 0h-1.373V11.13h1.372v1.392Zm-9.607 0H8.261V11.13h1.372v1.392Zm-1.372 0H6.889V11.13H8.26v1.392Zm27.446-1.392h-1.372V9.74h1.372v1.39Zm-12.351 0h-1.372V9.74h1.372v1.39Zm-2.744 0H19.24V9.74h1.372v1.39Zm-12.351 0H6.889V9.74H8.26v1.39Zm34.308-1.39h-1.373V8.347h1.373v1.391ZM1.4 9.74H.026V8.347H1.4v1.391Z"/>
      <path d="M42.569 8.348h-1.373V6.956h1.373v1.392Zm-1.373 0h-1.372V6.956h1.372v1.392Zm-12.35 0h-1.373V6.956h1.373v1.392Zm-1.373 0h-1.372V6.956h1.372v1.392Zm-1.373 0h-1.372V6.956h1.373v1.392Zm-8.233 0h-1.372V6.956h1.372v1.392Zm-1.372 0h-1.372V6.956h1.372v1.392Zm-1.372 0H13.75V6.956h1.373v1.392Zm-12.351 0H1.399V6.956h1.373v1.392Z"/>
      <path d="M1.4 8.348H.026V6.956H1.4v1.392Zm41.169-1.391h-1.373V5.565h1.373v1.392Zm-1.373 0h-1.372V5.565h1.372v1.392Zm-1.372 0h-1.372V5.565h1.372v1.392Zm-9.606 0h-1.372V5.565h1.372v1.392Zm-1.372 0h-1.373V5.565h1.373v1.392Zm-1.373 0h-1.372V5.565h1.372v1.392Zm-4.117 0h-1.372V5.565h1.372v1.392Zm-2.744 0H19.24V5.565h1.372v1.392Zm-4.117 0h-1.372V5.565h1.372v1.392Zm-1.372 0H13.75V5.565h1.373v1.392Zm-1.373 0h-1.372V5.565h1.372v1.392Zm-9.606 0H2.772V5.565h1.372v1.392Z"/>
      <path d="M2.772 6.957H1.399V5.565h1.373v1.392Z"/>
      <path d="M1.4 6.957H.026V5.565H1.4v1.392Zm39.796-1.392h-1.372V4.174h1.372v1.391Zm-1.372 0h-1.372V4.174h1.372v1.391Zm-1.372 0h-1.373V4.174h1.373v1.391Zm-6.862 0h-1.372V4.174h1.372v1.391Zm-1.372 0h-1.372V4.174h1.372v1.391Zm-1.372 0h-1.373V4.174h1.373v1.391Zm-4.117 0h-1.373V4.174h1.372v1.391Z"/>
      <path d="M23.356 5.565h-1.372V4.174h1.372v1.391Zm-2.744 0H19.24V4.174h1.372v1.391Zm-1.372 0h-1.373V4.174h1.372v1.391Zm-4.117 0H13.75V4.174h1.373v1.391Zm-1.373 0h-1.372V4.174h1.372v1.391Zm-1.372 0h-1.372V4.174h1.372v1.391Zm-6.862 0H4.144V4.174h1.372v1.391Zm-1.372 0H2.772V4.174h1.372v1.391Z"/>
      <path d="M2.772 5.565H1.399V4.174h1.373v1.391Zm37.052-1.391h-1.372V2.783h1.372v1.39Zm-1.372 0h-1.373V2.783h1.373v1.39Z"/>
      <path d="M37.08 4.174h-1.373V2.783h1.372v1.39Zm-10.98 0h-1.372V2.783h1.373v1.39Z"/>
      <path d="M24.729 4.174h-1.373V2.783h1.372v1.39Z"/>
      <path d="M23.356 4.174h-1.372V2.783h1.372v1.39Zm-2.744 0H19.24V2.783h1.372v1.39Zm-1.372 0h-1.373V2.783h1.372v1.39Zm-1.373 0h-1.372V2.783h1.372v1.39Zm-10.978 0H5.516V2.783H6.89v1.39Zm-1.373 0H4.144V2.783h1.372v1.39Zm-1.372 0H2.772V2.783h1.372v1.39ZM43.94 2.783h-1.37V1.39h1.372v1.392Zm-5.488 0h-1.373V1.39h1.373v1.392Z"/>
      <path d="M37.08 2.783h-1.373V1.39h1.372v1.392Zm-1.373 0h-1.372V1.39h1.372v1.392Zm-9.607 0h-1.372V1.39h1.373v1.392Z"/>
      <path d="M24.729 2.783h-1.373V1.39h1.372v1.392Zm-5.489 0h-1.373V1.39h1.372v1.392Z"/>
      <path d="M17.867 2.783h-1.372V1.39h1.372v1.392Zm-9.606 0H6.889V1.39H8.26v1.392Z"/>
      <path d="M6.889 2.783H5.516V1.39H6.89v1.392Zm-1.373 0H4.144V1.39h1.372v1.392ZM43.94 1.391h-1.37V0h1.372v1.391Zm-1.371 0h-1.373V0h1.373v1.391Zm-5.489 0h-1.373V0h1.372v1.391Zm-1.373 0h-1.372V0h1.372v1.391Zm-1.372 0h-1.373V0h1.373v1.391Zm-8.235 0h-1.372V0h1.373v1.391Zm-8.233 0h-1.372V0h1.372v1.391Zm-8.234 0H8.261V0h1.372v1.391Z"/>
      <path d="M8.261 1.391H6.889V0H8.26v1.391Z"/>
      <path d="M6.889 1.391H5.516V0H6.89v1.391Zm-5.489 0H.026V0H1.4v1.391Z"/>
      </g>
      
   </symbol>
   
    <symbol id="icon-arrowfacebook" viewBox="0 0 32 32">
      <path fill="#fcf9f9" d="M19.52 4.64h.96v3.6h-1.2c-.48 0-.96 0-1.2.24s-.24.48-.24 1.04v1.28h2.64v3.04h-2.64v13.2h-4.08V13.76H11.6v-3.04h2.16V9.68c0-1.76.24-3.04.72-3.6.72-1.04 2.16-1.52 4.32-1.52.24.08.48.08.72.08z" style="fill:var(--color2, #fcf9f9)"/>
    </symbol>
    <symbol id="icon-arrowinstagram" viewBox="0 0 32 32">
      <path fill="#fcf9f9" d="M28.717 10.756a9.264 9.264 0 0 0-.596-3.145 6.547 6.547 0 0 0-3.743-3.737 9.42 9.42 0 0 0-3.108-.596c-1.368-.061-1.801-.078-5.273-.078s-3.917 0-5.274.078a9.418 9.418 0 0 0-3.106.596 6.541 6.541 0 0 0-3.743 3.737 9.288 9.288 0 0 0-.596 3.101c-.061 1.367-.08 1.8-.08 5.265s0 3.909.08 5.265a9.335 9.335 0 0 0 .596 3.104 6.548 6.548 0 0 0 3.744 3.735 9.37 9.37 0 0 0 3.106.639c1.369.061 1.803.08 5.274.08s3.916 0 5.274-.08a9.357 9.357 0 0 0 3.108-.595 6.555 6.555 0 0 0 3.743-3.737 9.35 9.35 0 0 0 .596-3.104c.061-1.365.08-1.798.08-5.265-.003-3.466-.003-3.906-.082-5.264zM15.99 22.531c-3.631 0-6.572-2.936-6.572-6.561s2.941-6.561 6.572-6.561c3.628 0 6.572 2.936 6.572 6.561s-2.944 6.561-6.572 6.561zm6.833-11.835a1.53 1.53 0 1 1 0-3.06 1.53 1.53 0 1 1 0 3.06z" opacity=".8" style="fill:var(--color2, #fcf9f9)"/>
      <path fill="#fcf9f9" d="M15.992 19.976a4.004 4.004 0 1 0 0-8.009 4.004 4.004 0 0 0 0 8.009z" opacity=".8" style="fill:var(--color2, #fcf9f9)"/>
    </symbol>
    <symbol id="icon-arrowyoutube" viewBox="0 0 32 32">
      <path fill="#fcf9f9" d="M24.24 6c-1.36-.08-4.16-.16-8.4-.16h-.56c-4.08 0-6.8.08-8.16.24-1.84.16-3.12.64-3.84 1.28-.64.56-1.12 1.6-1.28 2.96-.08.88-.16 2.72-.16 5.52v.4c0 2.64.08 4.48.24 5.36.24 1.28.64 2.24 1.44 2.8.8.64 2.16 1.04 4.08 1.2 1.36.08 4.16.16 8.4.16h.56c4.08 0 6.8-.08 8.16-.24 1.84-.16 3.12-.64 3.84-1.28.64-.56 1.12-1.6 1.28-2.96.08-.88.16-2.72.16-5.52v-.4c0-2.64-.08-4.48-.24-5.36-.24-1.28-.64-2.24-1.44-2.8-.8-.64-2.16-1.04-4.08-1.2zm-3.12 9.84-8.8 5.28V10.56l8.8 5.28z" opacity=".8" style="fill:var(--color2, #fcf9f9)"/>
    </symbol>
    <symbol id="icon-arrowelements-2" viewBox="0 0 35 32">
      <path d="M14.16 1.374h-1.352V0h1.352v1.374zm-8.112 0H4.696V0h1.352v1.374zm-1.352 0H3.344V0h1.352v1.374z"/>
      <path d="M3.344 1.374H1.992V0h1.352v1.374z"/>
    </symbol>
    <symbol id="icon-arrowmobile" viewBox="0 0 32 32">
      <path stroke-linecap="round" stroke-linejoin="round" stroke-width="1.778" d="M24 8 8 24M8 8l16 16"/>
    </symbol>
    <symbol id="icon-arrowelements-mobile-grey" viewBox="0 0 20 32">
      <path fill="#fcf9f9" d="M14.619 31.964h-1.123v-1.142h1.123v1.142zm-6.737 0H6.759v-1.142h1.123v1.142zm-1.123 0H5.636v-1.142h1.123v1.142zm-1.123 0H4.513v-1.142h1.123v1.142zm-4.491 0H.022v-1.142h1.123v1.142zm19.087-1.141h-1.123v-1.142h1.123v1.142z" opacity=".1" style="fill:var(--color2, #fcf9f9)"/>
      <path fill="#fcf9f9" d="M15.741 30.823h-1.123v-1.142h1.123v1.142z" opacity=".1" style="fill:var(--color2, #fcf9f9)"/>
      <path fill="#fcf9f9" d="M14.619 30.823h-1.123v-1.142h1.123v1.142zm-7.86 0H5.636v-1.142h1.123v1.142zm-1.123 0H4.513v-1.142h1.123v1.142zm-1.123 0H3.39v-1.142h1.123v1.142zm15.719-1.142h-1.123v-1.142h1.123v1.142z" opacity=".1" style="fill:var(--color2, #fcf9f9)"/>
      <path fill="#fcf9f9" d="M19.11 29.681h-1.123v-1.142h1.123v1.142zm-2.246 0h-1.123v-1.142h1.123v1.142zm-1.123 0h-1.123v-1.142h1.123v1.142z" opacity=".1" style="fill:var(--color2, #fcf9f9)"/>
      <path fill="#fcf9f9" d="M14.619 29.681h-1.123v-1.142h1.123v1.142zm-8.983 0H4.513v-1.142h1.123v1.142zm-1.123 0H3.39v-1.142h1.123v1.142z" opacity=".1" style="fill:var(--color2, #fcf9f9)"/>
      <path fill="#fcf9f9" d="M3.391 29.681H2.268v-1.142h1.123v1.142zm16.841-1.141h-1.123v-1.142h1.123v1.142z" opacity=".1" style="fill:var(--color2, #fcf9f9)"/>
      <path fill="#fcf9f9" d="M19.11 28.54h-1.123v-1.142h1.123v1.142zm-2.246 0h-1.123v-1.142h1.123v1.142zm-1.123 0h-1.123v-1.142h1.123v1.142zm-3.368 0H11.25v-1.142h1.123v1.142zm-1.123 0h-1.123v-1.142h1.123v1.142zm-1.123 0H9.004v-1.142h1.123v1.142zm-5.614 0H3.39v-1.142h1.123v1.142z" opacity=".1" style="fill:var(--color2, #fcf9f9)"/>
      <path fill="#fcf9f9" d="M3.391 28.54H2.268v-1.142h1.123v1.142zm-1.123 0H1.145v-1.142h1.123v1.142zm16.842-1.142h-1.123v-1.142h1.123v1.142zm-2.246 0h-1.123v-1.142h1.123v1.142zm-3.368 0h-1.123v-1.142h1.123v1.142zm-1.123 0H11.25v-1.142h1.123v1.142zm-1.123 0h-1.123v-1.142h1.123v1.142zm-7.859 0H2.268v-1.142h1.123v1.142zm-1.123 0H1.145v-1.142h1.123v1.142zm-1.123 0H.022v-1.142h1.123v1.142zm13.474-1.142h-1.123v-1.142h1.123v1.142zm-1.123 0h-1.123v-1.142h1.123v1.142zm-1.123 0H11.25v-1.142h1.123v1.142zm-10.105 0H1.145v-1.142h1.123v1.142zm-1.123 0H.022v-1.142h1.123v1.142zm17.965-1.141h-1.123v-1.142h1.123v1.142zm-2.246 0h-1.123v-1.142h1.123v1.142zm-10.105 0H5.636v-1.142h1.123v1.142z" opacity=".1" style="fill:var(--color2, #fcf9f9)"/>
      <path fill="#fcf9f9" d="M1.145 25.115H.022v-1.142h1.123v1.142zm19.087-1.142h-1.123v-1.142h1.123v1.142z" opacity=".1" style="fill:var(--color2, #fcf9f9)"/>
      <path fill="#fcf9f9" d="M19.11 23.973h-1.123v-1.142h1.123v1.142zm-2.246 0h-1.123v-1.142h1.123v1.142zm-1.123 0h-1.123v-1.142h1.123v1.142zm-7.859 0H6.759v-1.142h1.123v1.142zm-1.123 0H5.636v-1.142h1.123v1.142z" opacity=".1" style="fill:var(--color2, #fcf9f9)"/>
      <path fill="#fcf9f9" d="M20.232 22.832h-1.123V21.69h1.123v1.142zm-4.491 0h-1.123V21.69h1.123v1.142z" opacity=".1" style="fill:var(--color2, #fcf9f9)"/>
      <path fill="#fcf9f9" d="M14.619 22.832h-1.123V21.69h1.123v1.142zm-5.614 0H7.882V21.69h1.123v1.142z" opacity=".1" style="fill:var(--color2, #fcf9f9)"/>
      <path fill="#fcf9f9" d="M7.882 22.832H6.759V21.69h1.123v1.142zm-1.123 0H5.636V21.69h1.123v1.142zm7.86-1.142h-1.123v-1.142h1.123v1.142zm-1.123 0h-1.123v-1.142h1.123v1.142zm-4.491 0H7.882v-1.142h1.123v1.142z" opacity=".1" style="fill:var(--color2, #fcf9f9)"/>
      <path fill="#fcf9f9" d="M7.882 21.69H6.759v-1.142h1.123v1.142zm5.614-1.142h-1.123v-1.142h1.123v1.142zm-1.123 0H11.25v-1.142h1.123v1.142zm-3.368 0H7.882v-1.142h1.123v1.142zm-3.369 0H4.513v-1.142h1.123v1.142zm-1.123 0H3.39v-1.142h1.123v1.142z" opacity=".1" style="fill:var(--color2, #fcf9f9)"/>
      <path fill="#fcf9f9" d="M3.391 20.548H2.268v-1.142h1.123v1.142zm8.982-1.141H11.25v-1.142h1.123v1.142zm-1.123 0h-1.123v-1.142h1.123v1.142zm-4.491 0H5.636v-1.142h1.123v1.142zm-1.123 0H4.513v-1.142h1.123v1.142z" opacity=".1" style="fill:var(--color2, #fcf9f9)"/>
      <path fill="#fcf9f9" d="M4.513 19.407H3.39v-1.142h1.123v1.142zm13.474-1.142h-1.123v-1.142h1.123v1.142zm-6.737 0h-1.123v-1.142h1.123v1.142zm-1.123 0H9.004v-1.142h1.123v1.142zm-2.245 0H6.759v-1.142h1.123v1.142zm-1.123 0H5.636v-1.142h1.123v1.142zm-1.123 0H4.513v-1.142h1.123v1.142zm-4.513-1.141H0v-1.142h1.123v1.142zm1.145 0H1.145v-1.142h1.123v1.142z" opacity=".1" style="fill:var(--color2, #fcf9f9)"/>
      <path fill="#fcf9f9" d="M1.123 18.265H0v-1.142h1.123v1.142zm0-2.283H0V14.84h1.123v1.142zm17.987 1.142h-1.123v-1.142h1.123v1.142zm-1.123 0h-1.123v-1.142h1.123v1.142z" opacity=".1" style="fill:var(--color2, #fcf9f9)"/>
      <path fill="#fcf9f9" d="M16.864 17.124h-1.123v-1.142h1.123v1.142zm1.123-1.142h-1.123V14.84h1.123v1.142zm-6.737 0h-1.123V14.84h1.123v1.142zm-1.123 0H9.004V14.84h1.123v1.142zm-2.245 0H6.759V14.84h1.123v1.142zm-1.123 0H5.636V14.84h1.123v1.142zm-1.123 0H4.513V14.84h1.123v1.142zm6.737-1.141H11.25v-1.142h1.123v1.142z" opacity=".1" style="fill:var(--color2, #fcf9f9)"/>
      <path fill="#fcf9f9" d="M11.25 14.841h-1.123v-1.142h1.123v1.142zm-4.491 0H5.636v-1.142h1.123v1.142zm-1.123 0H4.513v-1.142h1.123v1.142zm-1.123 0H3.39v-1.142h1.123v1.142zm8.983-1.142h-1.123v-1.142h1.123v1.142zm-1.123 0H11.25v-1.142h1.123v1.142zm-3.368 0H7.882v-1.142h1.123v1.142zm-3.369 0H4.513v-1.142h1.123v1.142zm-1.123 0H3.39v-1.142h1.123v1.142z" opacity=".1" style="fill:var(--color2, #fcf9f9)"/>
      <path fill="#fcf9f9" d="M3.391 13.699H2.268v-1.142h1.123v1.142zm11.228-1.142h-1.123v-1.142h1.123v1.142zm-1.123 0h-1.123v-1.142h1.123v1.142zm-4.491 0H7.882v-1.142h1.123v1.142z" opacity=".1" style="fill:var(--color2, #fcf9f9)"/>
      <path fill="#fcf9f9" d="M7.882 12.557H6.759v-1.142h1.123v1.142zm12.35-1.141h-1.123v-1.142h1.123v1.142zm-4.491 0h-1.123v-1.142h1.123v1.142z" opacity=".1" style="fill:var(--color2, #fcf9f9)"/>
      <path fill="#fcf9f9" d="M14.619 11.416h-1.123v-1.142h1.123v1.142zm-5.614 0H7.882v-1.142h1.123v1.142z" opacity=".1" style="fill:var(--color2, #fcf9f9)"/>
      <path fill="#fcf9f9" d="M7.882 11.416H6.759v-1.142h1.123v1.142zm-1.123 0H5.636v-1.142h1.123v1.142zm13.473-1.142h-1.123V9.132h1.123v1.142z" opacity=".1" style="fill:var(--color2, #fcf9f9)"/>
      <path fill="#fcf9f9" d="M19.11 10.274h-1.123V9.132h1.123v1.142zm-2.246 0h-1.123V9.132h1.123v1.142zm-1.123 0h-1.123V9.132h1.123v1.142zm-7.859 0H6.759V9.132h1.123v1.142zm-1.123 0H5.636V9.132h1.123v1.142z" opacity=".1" style="fill:var(--color2, #fcf9f9)"/>
      <path fill="#fcf9f9" d="M19.11 9.133h-1.123V7.991h1.123v1.142zm-2.246 0h-1.123V7.991h1.123v1.142zm-10.105 0H5.636V7.991h1.123v1.142zM1.145 7.991H.022V6.849h1.123v1.142zm13.474-1.142h-1.123V5.707h1.123v1.142zm-1.123 0h-1.123V5.707h1.123v1.142zm-1.123 0H11.25V5.707h1.123v1.142zm-10.105 0H1.145V5.707h1.123v1.142zm-1.123 0H.022V5.707h1.123v1.142zM19.11 5.708h-1.123V4.566h1.123v1.142zm-2.246 0h-1.123V4.566h1.123v1.142z" opacity=".1" style="fill:var(--color2, #fcf9f9)"/>
      <path fill="#fcf9f9" d="M13.496 5.708h-1.123V4.566h1.123v1.142zm-1.123 0H11.25V4.566h1.123v1.142zm-1.123 0h-1.123V4.566h1.123v1.142zm-7.859 0H2.268V4.566h1.123v1.142zm-1.123 0H1.145V4.566h1.123v1.142zm-1.123 0H.022V4.566h1.123v1.142zm19.087-1.142h-1.123V3.424h1.123v1.142z" opacity=".1" style="fill:var(--color2, #fcf9f9)"/>
      <path fill="#fcf9f9" d="M19.11 4.566h-1.123V3.424h1.123v1.142zm-2.246 0h-1.123V3.424h1.123v1.142zm-1.123 0h-1.123V3.424h1.123v1.142zm-3.368 0H11.25V3.424h1.123v1.142zm-1.123 0h-1.123V3.424h1.123v1.142zm-1.123 0H9.004V3.424h1.123v1.142zm-5.614 0H3.39V3.424h1.123v1.142z" opacity=".1" style="fill:var(--color2, #fcf9f9)"/>
      <path fill="#fcf9f9" d="M3.391 4.566H2.268V3.424h1.123v1.142zm-1.123 0H1.145V3.424h1.123v1.142zm17.964-1.141h-1.123V2.283h1.123v1.142z" opacity=".1" style="fill:var(--color2, #fcf9f9)"/>
      <path fill="#fcf9f9" d="M19.11 3.425h-1.123V2.283h1.123v1.142zm-2.246 0h-1.123V2.283h1.123v1.142zm-1.123 0h-1.123V2.283h1.123v1.142z" opacity=".1" style="fill:var(--color2, #fcf9f9)"/>
      <path fill="#fcf9f9" d="M14.619 3.425h-1.123V2.283h1.123v1.142zm-8.983 0H4.513V2.283h1.123v1.142zm-1.123 0H3.39V2.283h1.123v1.142z" opacity=".1" style="fill:var(--color2, #fcf9f9)"/>
      <path fill="#fcf9f9" d="M3.391 3.425H2.268V2.283h1.123v1.142zm16.841-1.142h-1.123V1.141h1.123v1.142zm-4.491 0h-1.123V1.141h1.123v1.142z" opacity=".1" style="fill:var(--color2, #fcf9f9)"/>
      <path fill="#fcf9f9" d="M14.619 2.283h-1.123V1.141h1.123v1.142zm-7.86 0H5.636V1.141h1.123v1.142zm-1.123 0H4.513V1.141h1.123v1.142zm-1.123 0H3.39V1.141h1.123v1.142z" opacity=".1" style="fill:var(--color2, #fcf9f9)"/>
      <path fill="#fcf9f9" d="M14.619 1.142h-1.123V0h1.123v1.142zm-6.737 0H6.759V0h1.123v1.142zm-1.123 0H5.636V0h1.123v1.142zm-1.123 0H4.513V0h1.123v1.142zm-4.491 0H.022V0h1.123v1.142z" opacity=".1" style="fill:var(--color2, #fcf9f9)"/>
    </symbol>
    <symbol id="icon-arrowelements-mobile" viewBox="0 0 60 32">
      <path fill="#ecd979" d="M54.865 32.044h-2.256v-2.289h2.256v2.289zm-2.256 0h-2.256v-2.289h2.256v2.289z" style="fill:var(--color1, #ecd979)"/>
      <path fill="#ecd979" d="M50.354 32.044h-2.256v-2.289h2.256v2.289zm-4.511 0h-2.256v-2.289h2.256v2.289zm-2.256 0h-2.256v-2.289h2.256v2.289zm-13.533 0h-2.256v-2.289h2.256v2.289zm-13.534 0h-2.256v-2.289h2.256v2.289z" style="fill:var(--color1, #ecd979)"/>
      <path fill="#ecd979" d="M14.265 32.044h-2.256v-2.289h2.256v2.289zm-4.511 0H7.498v-2.289h2.256v2.289zm-2.256 0H5.242v-2.289h2.256v2.289zm-2.256 0H2.986v-2.289h2.256v2.289zm51.879-2.289h-2.256v-2.289h2.256v2.289zm-2.256 0h-2.256v-2.289h2.256v2.289zm-2.256 0h-2.256v-2.289h2.256v2.289zm-9.022 0h-2.256v-2.289h2.256v2.289zm-2.256 0h-2.256v-2.289h2.256v2.289zm-22.555 0H16.52v-2.289h2.256v2.289z" style="fill:var(--color1, #ecd979)"/>
      <path fill="#ecd979" d="M16.52 29.755h-2.256v-2.289h2.256v2.289zm-9.022 0H5.242v-2.289h2.256v2.289zm-2.256 0H2.986v-2.289h2.256v2.289z" style="fill:var(--color1, #ecd979)"/>
      <path fill="#ecd979" d="M2.987 29.755H.731v-2.289h2.256v2.289zm56.389-2.288H57.12v-2.289h2.256v2.289z" style="fill:var(--color1, #ecd979)"/>
      <path fill="#ecd979" d="M57.121 27.467h-2.256v-2.289h2.256v2.289zm-2.256 0h-2.256v-2.289h2.256v2.289zm-6.767 0h-2.256v-2.289h2.256v2.289zm-6.767 0h-2.256v-2.289h2.256v2.289z" style="fill:var(--color1, #ecd979)"/>
      <path fill="#ecd979" d="M39.076 27.467H36.82v-2.289h2.256v2.289zm-18.044 0h-2.256v-2.289h2.256v2.289zm-2.256 0H16.52v-2.289h2.256v2.289zm-6.767 0H9.753v-2.289h2.256v2.289zm-6.767 0H2.986v-2.289h2.256v2.289z" style="fill:var(--color1, #ecd979)"/>
      <path fill="#ecd979" d="M2.987 27.467H.731v-2.289h2.256v2.289zm-2.256 0h-2.256v-2.289H.731v2.289zm49.623-2.289h-2.256v-2.289h2.256v2.289zm-2.256 0h-2.256v-2.289h2.256v2.289zm-9.022 0H36.82v-2.289h2.256v2.289zm-2.256 0h-2.256v-2.289h2.256v2.289zm-13.533 0h-2.256v-2.289h2.256v2.289z" style="fill:var(--color1, #ecd979)"/>
      <path fill="#ecd979" d="M21.032 25.178h-2.256v-2.289h2.256v2.289zm-9.023 0H9.753v-2.289h2.256v2.289z" style="fill:var(--color1, #ecd979)"/>
      <path fill="#ecd979" d="M9.754 25.178H7.498v-2.289h2.256v2.289zm42.855-2.289h-2.256V20.6h2.256v2.289z" style="fill:var(--color1, #ecd979)"/>
      <path fill="#ecd979" d="M50.354 22.889h-2.256V20.6h2.256v2.289zm-2.256 0h-2.256V20.6h2.256v2.289zm-11.278 0h-2.256V20.6h2.256v2.289z" style="fill:var(--color1, #ecd979)"/>
      <path fill="#ecd979" d="M34.565 22.889h-2.256V20.6h2.256v2.289zm-9.022 0h-2.256V20.6h2.256v2.289zm-2.256 0h-2.256V20.6h2.256v2.289zm-11.278 0H9.753V20.6h2.256v2.289z" style="fill:var(--color1, #ecd979)"/>
      <path fill="#ecd979" d="M9.754 22.889H7.498V20.6h2.256v2.289zm-2.256 0H5.242V20.6h2.256v2.289zM52.609 20.6h-2.256v-2.289h2.256V20.6z" style="fill:var(--color1, #ecd979)"/>
      <path fill="#ecd979" d="M50.354 20.6h-2.256v-2.289h2.256V20.6zm-15.789 0h-2.256v-2.289h2.256V20.6zm-2.256 0h-2.256v-2.289h2.256V20.6zm-4.51 0h-2.256v-2.289h2.256V20.6zm-2.256 0h-2.256v-2.289h2.256V20.6zm-15.789 0H7.498v-2.289h2.256V20.6zm-2.256 0H5.242v-2.289h2.256V20.6zm45.111-2.289h-2.256v-2.289h2.256v2.289zm-20.3 0h-2.256v-2.289h2.256v2.289zm-4.51 0h-2.256v-2.289h2.256v2.289zm-20.301 0H5.242v-2.289h2.256v2.289zm54.134-4.578h-2.256v-2.289h2.256v2.289zm-20.301 0h-2.256v-2.289h2.256v2.289z" style="fill:var(--color1, #ecd979)"/>
      <path fill="#ecd979" d="M39.076 13.733H36.82v-2.289h2.256v2.289zm-2.256 0h-2.256v-2.289h2.256v2.289zm-13.533 0h-2.256v-2.289h2.256v2.289z" style="fill:var(--color1, #ecd979)"/>
      <path fill="#ecd979" d="M21.032 13.733h-2.256v-2.289h2.256v2.289zm-2.256 0H16.52v-2.289h2.256v2.289zm42.856-2.289h-2.256V9.155h2.256v2.289zm-2.256 0H57.12V9.155h2.256v2.289zm-15.789 0h-2.256V9.155h2.256v2.289zm-2.256 0h-2.256V9.155h2.256v2.289z" style="fill:var(--color1, #ecd979)"/>
      <path fill="#ecd979" d="M39.076 11.444H36.82V9.155h2.256v2.289zm-6.767 0h-2.256V9.155h2.256v2.289zm-4.51 0h-2.256V9.155h2.256v2.289zm-6.767 0h-2.256V9.155h2.256v2.289zm-2.256 0H16.52V9.155h2.256v2.289zm-2.256 0h-2.256V9.155h2.256v2.289zm-15.789 0h-2.256V9.155H.731v2.289zm60.901-2.289h-2.256V6.866h2.256v2.289zm-2.256 0H57.12V6.866h2.256v2.289z" style="fill:var(--color1, #ecd979)"/>
      <path fill="#ecd979" d="M57.121 9.155h-2.256V6.866h2.256v2.289zm-11.278 0h-2.256V6.866h2.256v2.289zm-2.256 0h-2.256V6.866h2.256v2.289zm-2.256 0h-2.256V6.866h2.256v2.289zm-6.766 0h-2.256V6.866h2.256v2.289zm-2.256 0h-2.256V6.866h2.256v2.289zm-4.51 0h-2.256V6.866h2.256v2.289zm-2.256 0h-2.256V6.866h2.256v2.289zm-6.767 0H16.52V6.866h2.256v2.289zm-2.256 0h-2.256V6.866h2.256v2.289z" style="fill:var(--color1, #ecd979)"/>
      <path fill="#ecd979" d="M14.265 9.155h-2.256V6.866h2.256v2.289zm-11.278 0H.731V6.866h2.256v2.289zm-2.256 0h-2.256V6.866H.731v2.289zm58.645-2.288H57.12V4.578h2.256v2.289z" style="fill:var(--color1, #ecd979)"/>
      <path fill="#ecd979" d="M57.121 6.867h-2.256V4.578h2.256v2.289zm-2.256 0h-2.256V4.578h2.256v2.289zm-18.045 0h-2.256V4.578h2.256v2.289z" style="fill:var(--color1, #ecd979)"/>
      <path fill="#ecd979" d="M34.565 6.867h-2.256V4.578h2.256v2.289zm-2.256 0h-2.256V4.578h2.256v2.289zm-4.51 0h-2.256V4.578h2.256v2.289zm-2.256 0h-2.256V4.578h2.256v2.289zm-2.256 0h-2.256V4.578h2.256v2.289zm-18.045 0H2.986V4.578h2.256v2.289z" style="fill:var(--color1, #ecd979)"/>
      <path fill="#ecd979" d="M2.987 6.867H.731V4.578h2.256v2.289zm-2.256 0h-2.256V4.578H.731v2.289zm56.39-2.289h-2.256V2.289h2.256v2.289zm-2.256 0h-2.256V2.289h2.256v2.289zm-2.256 0h-2.256V2.289h2.256v2.289zm-15.789 0h-2.256V2.289h2.256v2.289z" style="fill:var(--color1, #ecd979)"/>
      <path fill="#ecd979" d="M34.565 4.578h-2.256V2.289h2.256v2.289zm-9.022 0h-2.256V2.289h2.256v2.289zm-2.256 0h-2.256V2.289h2.256v2.289zm-15.789 0H5.242V2.289h2.256v2.289zm-2.256 0H2.986V2.289h2.256v2.289z" style="fill:var(--color1, #ecd979)"/>
      <path fill="#ecd979" d="M2.987 4.578H.731V2.289h2.256v2.289zm51.878-2.289h-2.256V0h2.256v2.289zm-2.256 0h-2.256V0h2.256v2.289z" style="fill:var(--color1, #ecd979)"/>
      <path fill="#ecd979" d="M50.354 2.289h-2.256V0h2.256v2.289zm-13.534 0h-2.256V0h2.256v2.289zm-13.533 0h-2.256V0h2.256v2.289zm-13.533 0H7.498V0h2.256v2.289zm-2.256 0H5.242V0h2.256v2.289zm-2.256 0H2.986V0h2.256v2.289z" style="fill:var(--color1, #ecd979)"/>
    </symbol>
    <symbol id="icon-arrowuntitled" viewBox="0 0 48 32">
      <path fill="#ecd979" d="M41.648 18.935a64.374 64.374 0 0 1-.506-5.235c-.033-1.56.026-2.91.178-4.05L3.38 31.555l-1.795-3.109 37.94-21.905c-1.092-.488-2.305-1.137-3.639-1.945a73.191 73.191 0 0 1-4.238-2.981L33.926.3c4.813 2.024 9.215 3.036 13.206 3.035l.769 1.332c-2.025 3.406-3.35 7.724-3.975 12.954l-2.278 1.315z" style="fill:var(--color1, #ecd979)"/>
    </symbol>
    <symbol id="icon-arrowNav" viewBox="0 0 48 32">
      <path fill="none" stroke="#ecd979" stroke-linecap="round" stroke-width="2.667" d="M8.638 5.455h38.029M8.638 24.849h38.029m-26.551-9.698h26.551" style="stroke:var(--color1, #ecd979)"/>
    </symbol>
    <symbol id="icon-arrowNav-tablet" viewBox="0 0 47 32">
      <path fill="none" stroke="#ecd979" stroke-linecap="round" stroke-width="3.2" d="M8.742 5.188h36.591M8.742 24.582h36.591m-25.368-9.697h25.368" style="stroke:var(--color1, #ecd979)"/>
    </symbol>
  </defs>
</svg>